<?xml version="1.0" standalone="no"?>
<!DOCTYPE svg PUBLIC "-//W3C//DTD SVG 20010904//EN"
 "http://www.w3.org/TR/2001/REC-SVG-20010904/DTD/svg10.dtd">
<svg version="1.0" xmlns="http://www.w3.org/2000/svg"
 width="600.000000pt" height="600.000000pt" viewBox="0 0 600.000000 600.000000"
 preserveAspectRatio="xMidYMid meet">
<metadata>
Created by potrace 1.11, written by Peter Selinger 2001-2013
</metadata>
<g transform="translate(0.000000,600.000000) scale(0.100000,-0.100000)"
fill="#000000" stroke="none">
<path d="M981 5670 c-4 -3 -8 -1208 -8 -2677 0 -2429 2 -2673 16 -2674 22 -1
543 -1 557 0 7 1 10 336 10 1117 -1 614 1 1120 4 1124 3 5 181 10 395 11 215
1 422 5 460 9 39 5 99 10 135 13 203 17 542 113 726 206 94 47 232 135 291
183 77 66 186 172 247 243 136 158 274 426 301 585 3 19 8 42 10 50 14 51 18
94 20 255 2 99 -1 209 -6 245 -29 213 -66 351 -125 477 -19 39 -34 74 -34 78
0 12 -127 199 -157 231 -112 121 -133 142 -133 138 0 -3 -24 14 -52 38 -211
174 -533 299 -858 333 -30 3 -73 9 -95 12 -51 7 -1693 11 -1704 3z m1544 -454
c22 -3 58 -8 81 -11 346 -47 579 -155 734 -341 41 -50 90 -134 124 -214 51
-123 84 -324 80 -504 -3 -172 -26 -289 -84 -429 -48 -115 -190 -315 -213 -300
-6 3 -7 2 -4 -4 8 -12 -72 -82 -167 -146 -162 -109 -388 -194 -593 -222 -26
-4 -59 -9 -73 -11 -116 -18 -837 -26 -848 -9 -7 10 -10 2185 -4 2198 5 10 902
3 967 -7z"/>
<path d="M2135 4134 c1 -467 4 -854 8 -860 3 -6 26 -10 49 -8 264 17 342 29
468 72 l55 19 2 791 2 791 -27 5 c-15 3 -47 8 -72 11 -25 3 -61 8 -80 11 -19
2 -118 7 -220 11 l-185 6 0 -849z"/>
<path d="M2677 2364 c-3 -3 -147 -22 -207 -28 -25 -3 -108 -8 -185 -12 -77 -3
-142 -8 -144 -10 -10 -9 -6 -1994 4 -1997 9 -2 2941 -1 2973 2 9 1 12 55 12
236 l0 235 -1205 0 -1205 0 -1 38 c0 20 0 375 0 789 0 746 0 752 -20 750 -11
-1 -21 -2 -22 -3z"/>
</g>
</svg>
