<?xml version="1.0" standalone="no"?>
<!DOCTYPE svg PUBLIC "-//W3C//DTD SVG 20010904//EN"
 "http://www.w3.org/TR/2001/REC-SVG-20010904/DTD/svg10.dtd">
<svg version="1.0" xmlns="http://www.w3.org/2000/svg"
 width="512.000000pt" height="512.000000pt" viewBox="0 0 512.000000 512.000000"
 preserveAspectRatio="xMidYMid meet">
<metadata>
Created by potrace 1.14, written by Peter Selinger 2001-2017
</metadata>
<g transform="translate(0.000000,512.000000) scale(0.100000,-0.100000)"
fill="#000000" stroke="none">
<path d="M390 5104 c-30 -8 -80 -26 -110 -41 -72 -35 -188 -151 -223 -223 -61
-126 -57 23 -57 -2280 0 -2303 -4 -2154 57 -2280 35 -72 151 -188 223 -223
126 -61 -23 -57 2280 -57 2303 0 2154 -4 2280 57 72 35 188 151 223 223 61
126 57 -23 57 2280 0 2303 4 2154 -57 2280 -35 72 -151 188 -223 223 -127 61
23 57 -2285 56 -1816 0 -2118 -2 -2165 -15z m1735 -1119 c164 -26 257 -63 371
-148 75 -55 154 -169 185 -265 78 -250 -18 -648 -221 -921 -70 -93 -193 -213
-278 -270 -139 -94 -331 -167 -496 -190 -43 -6 -203 -11 -355 -11 l-278 0
-134 -532 -134 -533 -192 -3 c-106 -1 -193 0 -193 3 0 5 689 2765 711 2848
l10 37 457 0 c354 0 477 -3 547 -15z m1755 5 c0 -6 -139 -568 -310 -1250 -170
-682 -310 -1244 -310 -1250 0 -7 247 -10 730 -10 577 0 730 -3 730 -12 0 -7
-20 -89 -43 -183 l-43 -170 -927 -3 c-510 -1 -927 0 -927 3 0 5 690 2767 711
2848 l10 37 189 0 c121 0 190 -4 190 -10z"/>
<path d="M1282 3098 c-73 -293 -132 -537 -132 -541 0 -5 129 -7 288 -5 278 4
289 5 367 31 189 62 329 189 424 382 57 115 71 173 71 290 0 120 -25 183 -104
260 -42 42 -80 68 -121 85 -58 24 -69 25 -360 28 l-300 3 -133 -533z"/>
</g>
</svg>
