<?xml version="1.0" encoding="utf-8"?>
<!-- Generator: Adobe Illustrator 16.0.4, SVG Export Plug-In . SVG Version: 6.00 Build 0)  -->
<!DOCTYPE svg PUBLIC "-//W3C//DTD SVG 1.1//EN" "http://www.w3.org/Graphics/SVG/1.1/DTD/svg11.dtd">
<svg version="1.1" id="Layer_1" xmlns="http://www.w3.org/2000/svg" xmlns:xlink="http://www.w3.org/1999/xlink" x="0px" y="0px"
	 width="1500px" height="1500px" viewBox="0 0 1500 1500" enable-background="new 0 0 1500 1500" xml:space="preserve">
<g>
	<path fill="#FFFFFF" d="M351,1151c0-266.667,0-533.333,0-800c266.667,0,533.334,0,800,0c0,266.667,0,533.333,0,800
		C884.334,1151,617.667,1151,351,1151z M557.557,1016.444c19.76,0,38.488,0,57.728,0c0-74.977,0-149.558,0-224.603
		c2.649,0,4.783,0.015,6.917-0.002c31.457-0.25,62.957,1.022,94.309-2.861c25.619-3.174,50.447-9.293,73.293-21.54
		c36.219-19.417,63.167-47.536,77.426-86.582c10.066-27.565,9.166-55.925,3.604-84.196c-8.699-44.213-33.161-76.684-73.867-96.468
		c-28.758-13.977-59.6-18.382-91.14-18.563c-47.157-0.271-94.316-0.074-141.475-0.068c-6.777,0-6.793,0.021-6.793,6.887
		c-0.002,173.969-0.001,347.938,0,521.908C557.557,1012.313,557.557,1014.271,557.557,1016.444z M673.61,1016.464
		c99.895,0,199.251,0,298.625,0c0-15.614,0-30.847,0-46.655c-80.42,0-160.452,0-241.071,0c0-52.635,0-104.692,0-156.547
		c-19.513,1.595-38.454,3.142-57.554,4.702C673.61,884.009,673.61,950.088,673.61,1016.464z"/>
	<path fill-rule="evenodd" clip-rule="evenodd" d="M557.557,1016.444c0-2.173,0-4.131,0-6.089c0-173.97-0.002-347.939,0-521.908
		c0-6.865,0.017-6.887,6.793-6.887c47.158-0.006,94.318-0.203,141.475,0.068c31.54,0.182,62.382,4.587,91.14,18.563
		c40.706,19.784,65.168,52.255,73.867,96.468c5.562,28.271,6.463,56.631-3.604,84.196c-14.259,39.046-41.207,67.165-77.426,86.582
		c-22.846,12.247-47.674,18.366-73.293,21.54c-31.352,3.884-62.852,2.611-94.309,2.861c-2.134,0.017-4.268,0.002-6.917,0.002
		c0,75.045,0,149.626,0,224.603C596.044,1016.444,577.317,1016.444,557.557,1016.444z M615.399,747.162
		c1.522,0.155,2.657,0.371,3.791,0.372c18.495,0.018,36.992,0.179,55.485-0.039c21.904-0.258,43.513-2.849,64.179-10.542
		c30.545-11.372,54.938-29.99,67.816-60.872c10.42-24.982,10.254-50.929,4.516-76.973c-6.76-30.676-24.815-51.613-54.465-62.457
		c-19.764-7.229-40.298-10.223-61.158-10.622c-25.151-0.482-50.317-0.166-75.477-0.177c-1.458,0-2.917,0.162-4.687,0.267
		C615.399,599.806,615.399,673.212,615.399,747.162z"/>
	<path fill-rule="evenodd" clip-rule="evenodd" d="M673.61,1016.464c0-66.376,0-132.455,0-198.5
		c19.101-1.561,38.042-3.107,57.554-4.702c0,51.854,0,103.912,0,156.547c80.619,0,160.651,0,241.071,0c0,15.809,0,31.041,0,46.655
		C872.861,1016.464,773.505,1016.464,673.61,1016.464z"/>
	<path fill-rule="evenodd" clip-rule="evenodd" fill="#FFFFFF" d="M615.399,747.162c0-73.95,0-147.356,0-221.043
		c1.77-0.104,3.229-0.267,4.687-0.267c25.16,0.011,50.326-0.306,75.477,0.177c20.86,0.399,41.394,3.394,61.158,10.622
		c29.649,10.844,47.705,31.781,54.465,62.457c5.738,26.044,5.904,51.99-4.516,76.973c-12.879,30.882-37.271,49.5-67.816,60.872
		c-20.666,7.693-42.274,10.284-64.179,10.542c-18.493,0.218-36.99,0.057-55.485,0.039
		C618.056,747.533,616.921,747.317,615.399,747.162z M673.83,550.33c0,58.04,0,114.678,0,171.68
		c17.942-0.544,35.297-1.518,52.094-7.177c3.916-1.318,5.373-3.062,5.358-7.352c-0.164-48.953-0.102-97.907-0.115-146.86
		c0-1.773-0.168-3.545-0.316-6.473C711.754,552.87,693.049,551.617,673.83,550.33z"/>
	<path fill-rule="evenodd" clip-rule="evenodd" d="M673.83,550.33c19.219,1.287,37.924,2.54,57.021,3.818
		c0.148,2.928,0.315,4.699,0.316,6.473c0.014,48.953-0.049,97.907,0.115,146.86c0.015,4.29-1.442,6.033-5.358,7.352
		c-16.797,5.659-34.151,6.633-52.094,7.177C673.83,665.008,673.83,608.37,673.83,550.33z"/>
</g>
</svg>
